<?xml version="1.0" standalone="no"?>
<!DOCTYPE svg PUBLIC "-//W3C//DTD SVG 20010904//EN"
 "http://www.w3.org/TR/2001/REC-SVG-20010904/DTD/svg10.dtd">
<svg version="1.0" xmlns="http://www.w3.org/2000/svg"
 width="512.000000pt" height="512.000000pt" viewBox="0 0 512.000000 512.000000"
 preserveAspectRatio="xMidYMid meet">
<metadata>
Created by potrace 1.16, written by Peter Selinger 2001-2019
</metadata>
<g transform="translate(0.000000,512.000000) scale(0.100000,-0.100000)"
fill="#000000" stroke="none">
<path d="M4320 4789 c-70 -14 -141 -54 -197 -111 -28 -29 -538 -654 -1133
-1388 -595 -734 -1085 -1336 -1090 -1338 -4 -2 -131 173 -281 389 -203 290
-291 408 -341 455 -325 306 -872 136 -962 -299 -9 -42 -16 -99 -16 -126 0 -74
27 -188 60 -257 38 -79 1108 -1605 1167 -1666 158 -162 429 -169 599 -15 28
25 90 103 139 174 49 70 635 907 1301 1860 862 1231 1217 1747 1231 1785 27
78 24 214 -7 293 -27 68 -109 162 -179 203 -78 46 -187 61 -291 41z m195 -247
c71 -49 102 -142 71 -215 -7 -18 -515 -747 -1128 -1622 -612 -875 -1196 -1707
-1296 -1851 -193 -276 -212 -296 -298 -310 -57 -9 -119 11 -166 54 -47 42
-1120 1572 -1151 1641 -32 71 -30 198 4 271 62 130 192 220 321 220 84 0 151
-21 218 -67 47 -33 92 -92 345 -453 248 -355 297 -419 336 -443 83 -50 191
-47 265 9 17 13 531 639 1142 1392 1029 1268 1114 1370 1159 1391 61 27 122
22 178 -17z"/>
</g>
</svg>
